<svg width="273" height="230" viewBox="0 0 273 230" fill="none" xmlns="http://www.w3.org/2000/svg">
<rect x="1.5" y="1.5" width="270" height="227" rx="3.5" stroke="#AAAAAA" stroke-width="3"/>
<rect x="253.5" y="75.5" width="131" height="234" rx="3.5" transform="rotate(90 253.5 75.5)" stroke="#AAAAAA" stroke-width="3"/>
<rect x="19.5" y="23.5" width="234" height="33" rx="3.5" stroke="#AAAAAA" stroke-width="3"/>
<rect x="32" y="48.5" width="16.5" height="3.66129" rx="1.83065" transform="rotate(-90 32 48.5)" fill="#AAAAAA"/>
<rect x="41.7634" y="48.5" width="16.5" height="3.66129" rx="1.83065" transform="rotate(-90 41.7634 48.5)" fill="#AAAAAA"/>
<rect x="51.5269" y="48.5" width="16.5" height="3.66129" rx="1.83065" transform="rotate(-90 51.5269 48.5)" fill="#AAAAAA"/>
<rect x="61.2903" y="48.5" width="16.5" height="3.66129" rx="1.83065" transform="rotate(-90 61.2903 48.5)" fill="#AAAAAA"/>
<rect x="71.0538" y="48.5" width="16.5" height="3.66129" rx="1.83065" transform="rotate(-90 71.0538 48.5)" fill="#AAAAAA"/>
<rect x="80.8172" y="48.5" width="16.5" height="3.66129" rx="1.83065" transform="rotate(-90 80.8172 48.5)" fill="#AAAAAA"/>
<rect x="90.5806" y="48.5" width="16.5" height="3.66129" rx="1.83065" transform="rotate(-90 90.5806 48.5)" fill="#AAAAAA"/>
<rect x="100.344" y="48.5" width="16.5" height="3.66129" rx="1.83065" transform="rotate(-90 100.344 48.5)" fill="#AAAAAA"/>
<rect x="110.108" y="48.5" width="16.5" height="3.66129" rx="1.83065" transform="rotate(-90 110.108 48.5)" fill="#AAAAAA"/>
<rect x="119.871" y="48.5" width="16.5" height="3.66129" rx="1.83065" transform="rotate(-90 119.871 48.5)" fill="#AAAAAA"/>
<rect x="129.634" y="48.5" width="16.5" height="3.66129" rx="1.83065" transform="rotate(-90 129.634 48.5)" fill="#AAAAAA"/>
<rect x="139" y="48.5" width="16.5" height="3.66129" rx="1.83065" transform="rotate(-90 139 48.5)" fill="#AAAAAA"/>
<rect x="148.763" y="48.5" width="16.5" height="3.66129" rx="1.83065" transform="rotate(-90 148.763 48.5)" fill="#AAAAAA"/>
<rect x="158.527" y="48.5" width="16.5" height="3.66129" rx="1.83065" transform="rotate(-90 158.527 48.5)" fill="#AAAAAA"/>
<rect x="168.29" y="48.5" width="16.5" height="3.66129" rx="1.83065" transform="rotate(-90 168.29 48.5)" fill="#AAAAAA"/>
<rect x="178.054" y="48.5" width="16.5" height="3.66129" rx="1.83065" transform="rotate(-90 178.054 48.5)" fill="#AAAAAA"/>
<rect x="187.817" y="48.5" width="16.5" height="3.66129" rx="1.83065" transform="rotate(-90 187.817 48.5)" fill="#AAAAAA"/>
<rect x="197.581" y="48.5" width="16.5" height="3.66129" rx="1.83065" transform="rotate(-90 197.581 48.5)" fill="#AAAAAA"/>
<rect x="207.344" y="48.5" width="16.5" height="3.66129" rx="1.83065" transform="rotate(-90 207.344 48.5)" fill="#AAAAAA"/>
<rect x="217.108" y="48.5" width="16.5" height="3.66129" rx="1.83065" transform="rotate(-90 217.108 48.5)" fill="#AAAAAA"/>
<rect x="226.871" y="48.5" width="16.5" height="3.66129" rx="1.83065" transform="rotate(-90 226.871 48.5)" fill="#AAAAAA"/>
<rect x="236.634" y="48.5" width="16.5" height="3.66129" rx="1.83065" transform="rotate(-90 236.634 48.5)" fill="#AAAAAA"/>
</svg>
