<svg width="165" height="192" viewBox="0 0 165 192" fill="none" xmlns="http://www.w3.org/2000/svg">
<path d="M161.25 40.2518C154.75 45.1518 148.35 50.1518 141.65 54.7518C140.55 55.5518 137.95 54.8518 136.45 54.1518C121.15 46.0518 105.95 37.7518 90.85 29.3518C87.15 27.2518 84.25 27.0518 80.35 29.2518C63.75 38.7518 47.05 48.0518 30.25 57.2518C26.85 59.0518 25.65 61.2518 25.75 65.1518C25.95 84.8518 25.95 104.452 25.75 124.152C25.75 127.752 26.75 129.852 29.95 131.652C47.25 141.252 64.55 150.952 81.75 160.752C84.35 162.252 86.35 162.252 89.05 160.652C105.35 150.852 121.75 141.352 137.95 131.552C140.65 129.952 142.55 129.952 145.05 131.752C151.25 136.352 157.75 140.652 164.85 145.552C157.45 149.852 150.95 153.752 144.35 157.552C126.15 168.252 107.85 178.752 89.75 189.652C86.25 191.752 83.85 191.552 80.45 189.552C58.65 176.752 36.65 164.252 14.65 151.752C5.35 146.452 0.25 138.352 0.15 127.752C-0.05 101.052 -0.05 74.4518 0.15 47.7518C0.15 46.0518 1.55 43.5518 3.05 42.7518C26.45 29.3518 49.85 15.9518 73.55 3.05178C81.15 -1.14822 89.95 -0.948215 97.65 3.25179C118.75 14.9518 139.55 27.1518 160.45 39.1518C160.65 39.3518 160.85 39.6518 161.25 40.2518Z" fill="#9CA2A7"/>
<path d="M51 76L83.5 60L114 77.5V114L83.5 132L51 114V76Z" fill="#9CA2A7"/>
</svg>
