<svg width="269" height="230" viewBox="0 0 269 230" fill="none" xmlns="http://www.w3.org/2000/svg">
<rect x="1.5" y="1.5" width="266" height="227" rx="3.5" stroke="#AAAAAA" stroke-width="3"/>
<rect x="94.5" y="23.5" width="183" height="76" rx="3.5" transform="rotate(90 94.5 23.5)" stroke="#AAAAAA" stroke-width="3"/>
<rect x="250.5" y="23.5" width="183" height="137" rx="3.5" transform="rotate(90 250.5 23.5)" stroke="#AAAAAA" stroke-width="3"/>
<rect x="27" y="32" width="60" height="6" rx="3" fill="#5D5FEF"/>
<rect x="27" y="48" width="60" height="6" rx="3" fill="#5D5FEF"/>
<rect x="27" y="64" width="60" height="6" rx="3" fill="#5D5FEF"/>
<rect x="27" y="80" width="60" height="6" rx="3" fill="#5D5FEF"/>
<rect x="27" y="96" width="60" height="6" rx="3" fill="#5D5FEF"/>
<rect x="27" y="112" width="60" height="6" rx="3" fill="#5D5FEF"/>
<rect x="27" y="128" width="60" height="6" rx="3" fill="#5D5FEF"/>
<rect x="27" y="144" width="60" height="6" rx="3" fill="#5D5FEF"/>
<rect x="27" y="160" width="60" height="6" rx="3" fill="#5D5FEF"/>
<rect x="27" y="176" width="60" height="6" rx="3" fill="#5D5FEF"/>
<rect x="27" y="192" width="60" height="6" rx="3" fill="#5D5FEF"/>
<rect x="126" y="32" width="112" height="6" rx="3" fill="#5D5FEF"/>
<rect x="126" y="48" width="112" height="6" rx="3" fill="#5D5FEF"/>
<rect x="126" y="64" width="112" height="6" rx="3" fill="#5D5FEF"/>
<rect x="126" y="80" width="112" height="6" rx="3" fill="#5D5FEF"/>
<rect x="126" y="96" width="112" height="6" rx="3" fill="#5D5FEF"/>
<rect x="126" y="112" width="112" height="6" rx="3" fill="#5D5FEF"/>
<rect x="126" y="128" width="112" height="6" rx="3" fill="#5D5FEF"/>
<rect x="126" y="144" width="112" height="6" rx="3" fill="#5D5FEF"/>
<rect x="126" y="160" width="112" height="6" rx="3" fill="#5D5FEF"/>
<rect x="126" y="176" width="112" height="6" rx="3" fill="#5D5FEF"/>
<rect x="126" y="192" width="112" height="6" rx="3" fill="#5D5FEF"/>
</svg>
