<svg width="18" height="18" viewBox="0 0 18 18" fill="none" xmlns="http://www.w3.org/2000/svg">
<g clip-path="url(#clip0_2123_32759)">
<circle cx="9" cy="10.5" r="2.25" stroke="#FF6700" stroke-width="1.5"/>
<path d="M16.5 14.5V5.95156C16.5 5.49742 16.3454 5.0568 16.0617 4.70217L14.1005 2.25061C13.7209 1.77618 13.1463 1.5 12.5388 1.5H5.46125C4.85368 1.5 4.27906 1.77618 3.89951 2.25061L1.93826 4.70217C1.65456 5.0568 1.5 5.49742 1.5 5.95156V14.5C1.5 15.6046 2.39543 16.5 3.5 16.5H14.5C15.6046 16.5 16.5 15.6046 16.5 14.5Z" stroke="#FF6700" stroke-width="1.5" stroke-linejoin="round"/>
<path d="M2.25 5.25H15.75" stroke="#FF6700" stroke-width="1.5" stroke-linecap="round" stroke-linejoin="round"/>
<path d="M10.875 12.375L12.375 13.875" stroke="#FF6700" stroke-width="1.5" stroke-linecap="round" stroke-linejoin="round"/>
</g>
<defs>
<clipPath id="clip0_2123_32759">
<rect width="18" height="18" fill="white"/>
</clipPath>
</defs>
</svg>
